<svg xmlns="http://www.w3.org/2000/svg" version="1.1" xmlns:xlink="http://www.w3.org/1999/xlink" xmlns:svgjs="http://svgjs.dev/svgjs" width="2000" height="1227" viewBox="0 0 2000 1227"><g transform="matrix(1,0,0,1,-1.2120722929356589,-0.9732364341355151)"><svg viewBox="0 0 396 243" data-background-color="#ffffff" preserveAspectRatio="xMidYMid meet" height="1227" width="2000" xmlns="http://www.w3.org/2000/svg" xmlns:xlink="http://www.w3.org/1999/xlink"><g id="tight-bounds" transform="matrix(1,0,0,1,0.23999031400126114,0.19274364588014237)"><svg viewBox="0 0 395.52 242.61450252951096" height="242.61450252951096" width="395.52"><g><svg viewBox="0 0 395.52 242.61450252951096" height="242.61450252951096" width="395.52"><g><svg viewBox="0 0 395.52 242.61450252951096" height="242.61450252951096" width="395.52"><g id="textblocktransform"><svg viewBox="0 0 395.52 242.61450252951096" height="242.61450252951096" width="395.52" id="textblock"><g><svg viewBox="0 0 395.52 242.61450252951096" height="242.61450252951096" width="395.52"><g transform="matrix(1,0,0,1,0,0)"><svg width="395.52" viewBox="1.1299999952316284 -35.52000045776367 59.28999710083008 36.369998931884766" height="242.61450252951096" data-palette-color="#000000"><g class="wordmark-text-0" data-fill-palette-color="primary" id="text-0"><path d="M28.88-17.35L28.88-17.35Q28.88-11.85 27.3-7.76 25.73-3.68 22.64-1.41 19.55 0.85 15 0.85L15 0.85Q10.48 0.85 7.38-1.36 4.28-3.58 2.7-7.65 1.13-11.73 1.13-17.35L1.13-17.35Q1.13-22.85 2.7-26.93 4.28-31 7.38-33.26 10.48-35.52 15-35.52L15-35.52Q19.55-35.52 22.64-33.33 25.73-31.13 27.3-27.05 28.88-22.98 28.88-17.35ZM20.48-17.35L20.48-17.35Q20.48-23.75 19.2-26.65 17.93-29.55 15-29.55L15-29.55Q12.08-29.55 10.8-26.64 9.53-23.73 9.53-17.35L9.53-17.35Q9.53-10.95 10.83-8.05 12.13-5.15 15-5.15L15-5.15Q18-5.15 19.24-8.09 20.48-11.03 20.48-17.35ZM41.15-34.65L41.15 0 32.95 0 32.95-34.65 41.15-34.65ZM50.92 0L41.4-18.5 50.87-34.65 59.47-34.65 49.67-19.1 60.42 0 50.92 0Z" fill="#ffffff" data-fill-palette-color="primary"></path></g></svg></g></svg></g></svg></g></svg></g></svg></g><defs></defs></svg><rect width="395.52" height="242.61450252951096" fill="none" stroke="none" visibility="hidden"></rect></g></svg></g></svg>