<svg version="1.1" id="Layer_1" xmlns="http://www.w3.org/2000/svg" xmlns:xlink="http://www.w3.org/1999/xlink" x="0px" y="0px"
	 width="100%" viewBox="0 0 1000 1000" enable-background="new 0 0 1000 1000" xml:space="preserve">
<path fill="#000000" opacity="1.000000" stroke="none" 
	d="
M637.000000,1001.000000 
	C424.666656,1001.000000 212.833328,1001.000000 1.000000,1001.000000 
	C1.000000,667.666687 1.000000,334.333344 1.000000,1.000000 
	C334.333344,1.000000 667.666687,1.000000 1001.000000,1.000000 
	C1001.000000,334.333344 1001.000000,667.666687 1001.000000,1001.000000 
	C879.833313,1001.000000 758.666687,1001.000000 637.000000,1001.000000 
M224.672318,762.888794 
	C231.621063,765.616150 238.412491,768.876892 245.545212,770.980286 
	C279.918121,781.116699 314.929535,781.406311 349.953888,775.796082 
	C400.233002,767.742249 434.152222,739.429932 451.166504,691.265503 
	C461.612915,661.693604 464.723236,630.972961 464.778076,599.866882 
	C464.896454,532.710205 464.881409,465.553131 464.782074,398.396423 
	C464.740295,370.160370 462.143860,342.211395 453.913910,315.022614 
	C440.397095,270.367981 412.286713,240.089035 366.413208,228.581604 
	C327.827942,218.902435 288.743195,218.768753 250.163757,228.454697 
	C207.638138,239.131378 179.041000,265.794220 164.825668,307.515686 
	C156.153580,332.967926 152.186584,359.268433 152.064468,386.020782 
	C151.735855,458.008636 151.891296,529.998718 151.853271,601.987915 
	C151.838974,629.083435 154.705780,655.795898 162.000534,681.981750 
	C171.820206,717.231018 190.919388,745.247742 224.672318,762.888794 
M719.550171,284.041168 
	C692.432434,344.348938 665.314697,404.656708 638.196960,464.964478 
	C637.817017,464.858704 637.437073,464.752930 637.057129,464.647156 
	C637.057129,385.801727 637.057129,306.956299 637.057129,228.088272 
	C603.864014,228.088272 571.110474,228.088272 538.342346,228.088272 
	C538.342346,409.467682 538.342346,590.633057 538.342346,771.633850 
	C571.478333,771.633850 604.239746,771.633850 637.259399,771.633850 
	C637.259399,769.528015 637.259460,767.710876 637.259460,765.893799 
	C637.259460,700.738892 637.240784,635.583984 637.328979,570.429199 
	C637.332397,567.890869 637.831177,565.075928 638.997192,562.863037 
	C645.193665,551.103271 651.667603,539.489502 658.077271,527.842651 
	C658.649231,526.803284 659.448608,525.888977 660.375854,524.589417 
	C690.367676,605.927368 720.155029,686.616150 749.779907,767.364685 
	C751.101807,770.967712 752.668335,772.042480 756.441284,772.020081 
	C785.768311,771.845520 815.096802,771.923706 844.424866,771.923706 
	C846.185303,771.923706 847.945740,771.923706 850.177551,771.923706 
	C849.485413,770.016418 849.004700,768.629578 848.481628,767.258972 
	C811.478882,670.300110 774.493164,573.334717 737.391541,476.413788 
	C735.913147,472.551788 735.965271,469.424194 737.618591,465.582458 
	C765.317566,401.217499 792.850342,336.781036 820.420532,272.360626 
	C826.675842,257.744415 832.932434,243.128845 839.181152,228.530075 
	C838.540894,228.196716 838.273132,227.935394 838.005188,227.935104 
	C807.845093,227.902420 777.684692,227.845993 747.525574,228.010666 
	C746.113708,228.018372 744.054871,229.704758 743.406616,231.118149 
	C735.445068,248.475815 727.690613,265.928497 719.550171,284.041168 
z"/>
<path fill="#FEFEFE" opacity="1.000000" stroke="none" 
	d="
M224.346680,762.707886 
	C190.919388,745.247742 171.820206,717.231018 162.000534,681.981750 
	C154.705780,655.795898 151.838974,629.083435 151.853271,601.987915 
	C151.891296,529.998718 151.735855,458.008636 152.064468,386.020782 
	C152.186584,359.268433 156.153580,332.967926 164.825668,307.515686 
	C179.041000,265.794220 207.638138,239.131378 250.163757,228.454697 
	C288.743195,218.768753 327.827942,218.902435 366.413208,228.581604 
	C412.286713,240.089035 440.397095,270.367981 453.913910,315.022614 
	C462.143860,342.211395 464.740295,370.160370 464.782074,398.396423 
	C464.881409,465.553131 464.896454,532.710205 464.778076,599.866882 
	C464.723236,630.972961 461.612915,661.693604 451.166504,691.265503 
	C434.152222,739.429932 400.233002,767.742249 349.953888,775.796082 
	C314.929535,781.406311 279.918121,781.116699 245.545212,770.980286 
	C238.412491,768.876892 231.621063,765.616150 224.346680,762.707886 
M294.581665,705.039429 
	C300.727509,705.331604 306.888214,706.052979 313.016602,705.840881 
	C338.301086,704.965759 353.687317,693.101318 358.957520,668.323364 
	C362.049774,653.785156 363.702667,638.672668 363.782867,623.806519 
	C364.229736,540.999146 364.185089,458.187256 363.815918,375.379089 
	C363.753235,361.315552 362.312134,347.071777 359.703705,333.251770 
	C356.208527,314.733429 346.278809,300.508820 326.494110,296.398865 
	C318.754700,294.791107 310.577911,294.102692 302.696320,294.580048 
	C275.186981,296.246216 260.730286,308.827240 255.422363,335.771729 
	C253.437241,345.848755 252.177032,356.245972 252.143524,366.502258 
	C251.860855,452.976593 251.811981,539.452454 252.051682,625.926880 
	C252.086136,638.356750 253.449219,650.865601 255.222641,663.190430 
	C258.662354,687.095459 271.378906,700.473450 294.581665,705.039429 
z"/>
<path fill="#FFFFFF" opacity="1.000000" stroke="none" 
	d="
M719.716431,283.698914 
	C727.690613,265.928497 735.445068,248.475815 743.406616,231.118149 
	C744.054871,229.704758 746.113708,228.018372 747.525574,228.010666 
	C777.684692,227.845993 807.845093,227.902420 838.005188,227.935104 
	C838.273132,227.935394 838.540894,228.196716 839.181152,228.530075 
	C832.932434,243.128845 826.675842,257.744415 820.420532,272.360626 
	C792.850342,336.781036 765.317566,401.217499 737.618591,465.582458 
	C735.965271,469.424194 735.913147,472.551788 737.391541,476.413788 
	C774.493164,573.334717 811.478882,670.300110 848.481628,767.258972 
	C849.004700,768.629578 849.485413,770.016418 850.177551,771.923706 
	C847.945740,771.923706 846.185303,771.923706 844.424866,771.923706 
	C815.096802,771.923706 785.768311,771.845520 756.441284,772.020081 
	C752.668335,772.042480 751.101807,770.967712 749.779907,767.364685 
	C720.155029,686.616150 690.367676,605.927368 660.375854,524.589417 
	C659.448608,525.888977 658.649231,526.803284 658.077271,527.842651 
	C651.667603,539.489502 645.193665,551.103271 638.997192,562.863037 
	C637.831177,565.075928 637.332397,567.890869 637.328979,570.429199 
	C637.240784,635.583984 637.259460,700.738892 637.259460,765.893799 
	C637.259460,767.710876 637.259399,769.528015 637.259399,771.633850 
	C604.239746,771.633850 571.478333,771.633850 538.342346,771.633850 
	C538.342346,590.633057 538.342346,409.467682 538.342346,228.088272 
	C571.110474,228.088272 603.864014,228.088272 637.057129,228.088272 
	C637.057129,306.956299 637.057129,385.801727 637.057129,464.647156 
	C637.437073,464.752930 637.817017,464.858704 638.196960,464.964478 
	C665.314697,404.656708 692.432434,344.348938 719.716431,283.698914 
z"/>
<path fill="#000000" opacity="1.000000" stroke="none" 
	d="
M294.148010,704.998169 
	C271.378906,700.473450 258.662354,687.095459 255.222641,663.190430 
	C253.449219,650.865601 252.086136,638.356750 252.051682,625.926880 
	C251.811981,539.452454 251.860855,452.976593 252.143524,366.502258 
	C252.177032,356.245972 253.437241,345.848755 255.422363,335.771729 
	C260.730286,308.827240 275.186981,296.246216 302.696320,294.580048 
	C310.577911,294.102692 318.754700,294.791107 326.494110,296.398865 
	C346.278809,300.508820 356.208527,314.733429 359.703705,333.251770 
	C362.312134,347.071777 363.753235,361.315552 363.815918,375.379089 
	C364.185089,458.187256 364.229736,540.999146 363.782867,623.806519 
	C363.702667,638.672668 362.049774,653.785156 358.957520,668.323364 
	C353.687317,693.101318 338.301086,704.965759 313.016602,705.840881 
	C306.888214,706.052979 300.727509,705.331604 294.148010,704.998169 
z"/>
</svg>