<svg xmlns="http://www.w3.org/2000/svg" version="1.1" xmlns:xlink="http://www.w3.org/1999/xlink" xmlns:svgjs="http://svgjs.dev/svgjs" width="2000" height="1593" viewBox="0 0 2000 1593"><g transform="matrix(1,0,0,1,-0.8239400087512649,0.6449539260339634)"><svg viewBox="0 0 310 247" data-background-color="#ffffff" preserveAspectRatio="xMidYMid meet" height="1593" width="2000" xmlns="http://www.w3.org/2000/svg" xmlns:xlink="http://www.w3.org/1999/xlink"><g id="tight-bounds" transform="matrix(1,0,0,1,0.12771098539053582,-0.10000227227268965)"><svg viewBox="0 0 309.744578313253 247.2" height="247.2" width="309.744578313253"><g><svg viewBox="0 0 309.744578313253 247.2" height="247.2" width="309.744578313253"><g><svg viewBox="0 0 309.744578313253 247.2" height="247.2" width="309.744578313253"><g id="textblocktransform"><svg viewBox="0 0 309.744578313253 247.2" height="247.2" width="309.744578313253" id="textblock"><g><svg viewBox="0 0 309.744578313253 247.2" height="247.2" width="309.744578313253"><g transform="matrix(1,0,0,1,0,0)"><svg width="309.744578313253" viewBox="2.450000047683716 -40.95000076293945 52 41.5" height="247.2" data-palette-color="#000000"><path d="M14.05 0.55L14.05 0.55Q9.75 0.55 7.2-1.05 4.65-2.65 3.55-5.65 2.45-8.65 2.45-12.75L2.45-12.75 2.45-27.9Q2.45-32 3.55-34.93 4.65-37.85 7.2-39.4 9.75-40.95 14.05-40.95L14.05-40.95Q18.45-40.95 20.98-39.4 23.5-37.85 24.63-34.93 25.75-32 25.75-27.9L25.75-27.9 25.75-12.7Q25.75-8.65 24.63-5.68 23.5-2.7 20.98-1.07 18.45 0.55 14.05 0.55ZM14.05-4.9L14.05-4.9Q15.9-4.9 16.78-5.7 17.65-6.5 17.95-7.9 18.25-9.3 18.25-10.95L18.25-10.95 18.25-29.6Q18.25-31.3 17.95-32.65 17.65-34 16.78-34.77 15.9-35.55 14.05-35.55L14.05-35.55Q12.3-35.55 11.4-34.77 10.5-34 10.2-32.65 9.9-31.3 9.9-29.6L9.9-29.6 9.9-10.95Q9.9-9.3 10.18-7.9 10.45-6.5 11.35-5.7 12.25-4.9 14.05-4.9ZM38.6 0L31.2 0 31.2-40.5 38.6-40.5 38.6-22.7 46.6-40.5 53.65-40.5 45.9-22.4 54.45 0 47.1 0 40.3-18.45 38.6-15.35 38.6 0Z" opacity="1" transform="matrix(1,0,0,1,0,0)" fill="#ffffff" class="wordmark-text-0" data-fill-palette-color="primary" id="text-0"></path></svg></g></svg></g></svg></g></svg></g><g></g></svg></g><defs></defs></svg><rect width="309.744578313253" height="247.2" fill="none" stroke="none" visibility="hidden"></rect></g></svg></g></svg>