<?xml version="1.0" standalone="no"?>
<!DOCTYPE svg PUBLIC "-//W3C//DTD SVG 20010904//EN"
 "http://www.w3.org/TR/2001/REC-SVG-20010904/DTD/svg10.dtd">
<svg version="1.0" xmlns="http://www.w3.org/2000/svg"
 width="2000.000000pt" height="1500.000000pt" viewBox="0 0 2000.000000 1500.000000"
 preserveAspectRatio="xMidYMid meet">

<g transform="translate(0.000000,1500.000000) scale(0.100000,-0.100000)"
fill="#000000" stroke="none">
<path d="M5730 12084 c-19 -2 -84 -9 -145 -14 -395 -39 -792 -152 -1120 -320
-630 -323 -1139 -885 -1468 -1620 -236 -527 -390 -1168 -451 -1870 -103 -1176
35 -2369 371 -3220 220 -557 507 -990 887 -1339 484 -444 1045 -688 1781 -773
172 -20 725 -17 905 5 617 76 1122 278 1560 625 132 105 408 385 513 521 530
686 834 1580 932 2741 22 261 30 843 16 1125 -36 689 -135 1259 -311 1785
-207 622 -487 1097 -875 1485 -486 487 -1058 755 -1815 851 -118 14 -691 28
-780 18z m580 -1532 c207 -56 343 -133 485 -276 95 -97 158 -184 230 -318 261
-492 390 -1409 372 -2638 -11 -675 -51 -1135 -136 -1557 -102 -502 -244 -819
-465 -1038 -206 -205 -444 -297 -771 -298 -341 -2 -591 100 -802 327 -318 340
-492 935 -563 1921 -31 425 -29 1286 5 1725 69 917 228 1471 520 1822 146 175
376 303 624 348 25 5 132 7 236 6 152 -3 205 -8 265 -24z"/>
<path d="M10550 7495 l0 -4375 1035 0 1035 0 0 4375 0 4375 -1035 0 -1035 0 0
-4375z"/>
<path d="M13920 9903 c-635 -1083 -1173 -2000 -1195 -2038 l-42 -70 1202
-2335 1201 -2335 1198 -3 c1118 -2 1198 -1 1192 15 -4 9 -612 1092 -1353 2407
-740 1315 -1346 2396 -1346 2401 0 6 554 889 1232 1963 677 1075 1231 1956
1231 1958 0 2 -488 4 -1083 4 l-1084 0 -1153 -1967z"/>
</g>
</svg>
